{
  "accessors": [
    {
      "bufferView": 2,
      "componentType": 5126,
      "count": 1574,
      "max": [
        49.99925231933594,
        50.00006103515625,
        50.00006103515625
      ],
      "min": [
        -49.99925231933594,
        -50.00006103515625,
        -50.00006103515625
      ],
      "type": "VEC3"
    },
    {
      "bufferView": 2,
      "byteOffset": 18888,
      "componentType": 5126,
      "count": 1574,
      "max": [
        0.9999809265136719,
        1.0,
        1.0
      ],
      "min": [
        -0.9999809265136719,
        -1.0,
        -1.0
      ],
      "type": "VEC3"
    },
    {
      "bufferView": 3,
      "componentType": 5126,
      "count": 1574,
      "max": [
        1.0,
        1.0,
        0.7769322395324707,
        1.0
      ],
      "min": [
        -1.0,
        -1.0,
        -0.7788627743721008,
        1.0
      ],
      "type": "VEC4"
    },
    {
      "bufferView": 1,
      "componentType": 5126,
      "count": 1574,
      "max": [
        1.1027305126190186,
        0.9764013886451721
      ],
      "min": [
        0.00273054838180542,
        0.02288186550140381
      ],
      "type": "VEC2"
    },
    {
      "bufferView": 1,
      "byteOffset": 12592,
      "componentType": 5126,
      "count": 1574,
      "max": [
        1.1027305126190186,
        0.9764013886451721
      ],
      "min": [
        0.00273054838180542,
        0.02288186550140381
      ],
      "type": "VEC2"
    },
    {
      "bufferView": 1,
      "byteOffset": 25184,
      "componentType": 5126,
      "count": 1574,
      "max": [
        1.1027305126190186,
        0.9764013886451721
      ],
      "min": [
        0.00273054838180542,
        0.02288186550140381
      ],
      "type": "VEC2"
    },
    {
      "bufferView": 0,
      "componentType": 5125,
      "count": 8640,
      "type": "SCALAR"
    },
    {
      "bufferView": 4,
      "componentType": 5126,
      "count": 3701,
      "max": [
        123.33333587646484
      ],
      "min": [
        0.0
      ],
      "type": "SCALAR"
    },
    {
      "bufferView": 5,
      "componentType": 5126,
      "count": 3701,
      "max": [
        0.49957549571990967,
        0.7071067094802856,
        0.7071068286895752,
        0.7071067094802856
      ],
      "min": [
        -0.7071068286895752,
        -0.4999998211860657,
        -0.49999991059303284,
        -0.4995754063129425
      ],
      "type": "VEC4"
    }
  ],
  "animations": [
    {
      "channels": [
        {
          "sampler": 0,
          "target": {
            "node": 4,
            "path": "rotation"
          }
        }
      ],
      "name": "mars|marsAction",
      "samplers": [
        {
          "input": 7,
          "interpolation": "LINEAR",
          "output": 8
        }
      ]
    }
  ],
  "asset": {
    "extras": {
      "author": "Nestaeric (https://sketchfab.com/Nestaeric)",
      "license": "CC-BY-4.0 (http://creativecommons.org/licenses/by/4.0/)",
      "source": "https://sketchfab.com/3d-models/mars-25b3f6f993de4f978de290b6e755ba87",
      "title": "Mars"
    },
    "generator": "Sketchfab-17.15.0",
    "version": "2.0"
  },
  "bufferViews": [
    {
      "buffer": 0,
      "byteLength": 34560,
      "name": "floatBufferViews",
      "target": 34963
    },
    {
      "buffer": 0,
      "byteLength": 37776,
      "byteOffset": 34560,
      "byteStride": 8,
      "name": "floatBufferViews",
      "target": 34962
    },
    {
      "buffer": 0,
      "byteLength": 37776,
      "byteOffset": 72336,
      "byteStride": 12,
      "name": "floatBufferViews",
      "target": 34962
    },
    {
      "buffer": 0,
      "byteLength": 25184,
      "byteOffset": 110112,
      "byteStride": 16,
      "name": "floatBufferViews",
      "target": 34962
    },
    {
      "buffer": 0,
      "byteLength": 14804,
      "byteOffset": 135296,
      "name": "floatBufferViews"
    },
    {
      "buffer": 0,
      "byteLength": 59216,
      "byteOffset": 150100,
      "byteStride": 16,
      "name": "floatBufferViews"
    }
  ],
  "buffers": [
    {
      "byteLength": 209316,
      "uri": "scene.bin"
    }
  ],
  "extensionsUsed": [
    "KHR_materials_clearcoat",
    "KHR_materials_specular"
  ],
  "images": [
    {
      "uri": "textures/mars_baseColor.png"
    },
    {
      "uri": "textures/mars_metallicRoughness.png"
    },
    {
      "uri": "textures/mars_normal.png"
    },
    {
      "uri": "textures/mars_specularf0.png"
    }
  ],
  "materials": [
    {
      "doubleSided": true,
      "extensions": {
        "KHR_materials_clearcoat": {
          "clearcoatFactor": 0.44952517950530896,
          "clearcoatRoughnessFactor": 0.6628591629993539
        },
        "KHR_materials_specular": {
          "specularColorFactor": [
            1.0,
            1.0,
            1.0
          ],
          "specularFactor": 0.25,
          "specularTexture": {
            "index": 3
          }
        }
      },
      "name": "mars",
      "normalTexture": {
        "index": 2
      },
      "pbrMetallicRoughness": {
        "baseColorTexture": {
          "index": 0
        },
        "metallicFactor": 0.5,
        "metallicRoughnessTexture": {
          "index": 1
        }
      }
    }
  ],
  "meshes": [
    {
      "name": "mars_mars_0",
      "primitives": [
        {
          "attributes": {
            "NORMAL": 1,
            "POSITION": 0,
            "TANGENT": 2,
            "TEXCOORD_0": 3,
            "TEXCOORD_1": 4,
            "TEXCOORD_2": 5
          },
          "indices": 6,
          "material": 0,
          "mode": 4
        }
      ]
    }
  ],
  "nodes": [
    {
      "children": [
        1
      ],
      "matrix": [
        0.9614819288253784,
        0.2748682200908661,
        6.103300533652291e-17,
        0.0,
        0.0,
        2.220446049250313e-16,
        -1.0,
        0.0,
        -0.2748682200908661,
        0.9614819288253784,
        2.1349187502858822e-16,
        0.0,
        0.0,
        0.0,
        0.0,
        1.0
      ],
      "name": "Sketchfab_model"
    },
    {
      "children": [
        2
      ],
      "matrix": [
        0.009999999776482582,
        0.0,
        0.0,
        0.0,
        0.0,
        0.0,
        0.009999999776482582,
        0.0,
        0.0,
        -0.009999999776482582,
        0.0,
        0.0,
        0.0,
        0.0,
        0.0,
        1.0
      ],
      "name": "6a4dbc73e0f04e4a83e093936e158d3f.fbx"
    },
    {
      "children": [
        3
      ],
      "name": "Object_2"
    },
    {
      "children": [
        4
      ],
      "name": "RootNode"
    },
    {
      "children": [
        5
      ],
      "name": "mars",
      "rotation": [
        -0.7071068286895752,
        0.0,
        0.0,
        0.7071067094802856
      ],
      "scale": [
        100.0,
        100.0,
        100.0
      ]
    },
    {
      "mesh": 0,
      "name": "mars_mars_0"
    }
  ],
  "samplers": [
    {
      "magFilter": 9729,
      "minFilter": 9987,
      "wrapS": 10497,
      "wrapT": 10497
    }
  ],
  "scene": 0,
  "scenes": [
    {
      "name": "Sketchfab_Scene",
      "nodes": [
        0
      ]
    }
  ],
  "textures": [
    {
      "sampler": 0,
      "source": 0
    },
    {
      "sampler": 0,
      "source": 1
    },
    {
      "sampler": 0,
      "source": 2
    },
    {
      "sampler": 0,
      "source": 3
    }
  ]
}
